<svg xmlns="http://www.w3.org/2000/svg" xmlns:xlink="http://www.w3.org/1999/xlink" preserveAspectRatio="xMidYMid" width="19" height="19" viewBox="0 0 19 19">
  <defs>
    <style>
      .cls-1 {
        fill: #fff;
        fill-rule: evenodd;
      }
    </style>
  </defs>
  <path d="M18.975,9.655 C18.975,9.656 18.976,9.657 18.976,9.657 C18.982,9.690 18.987,9.723 18.991,9.757 C18.992,9.763 18.993,9.769 18.994,9.775 C18.997,9.809 18.999,9.843 18.999,9.878 C18.999,9.884 19.000,9.891 19.000,9.897 L19.000,9.897 L19.000,9.897 C19.000,10.191 18.893,10.459 18.717,10.666 L18.717,10.666 L11.989,18.582 L11.989,18.581 C11.771,18.837 11.447,19.000 11.085,19.000 L11.085,19.000 L11.085,19.000 C11.046,19.000 11.008,18.998 10.970,18.994 C10.943,18.991 10.917,18.987 10.890,18.983 C10.881,18.981 10.872,18.980 10.863,18.979 C10.650,18.938 10.458,18.841 10.302,18.704 L10.300,18.706 L0.406,9.603 L0.410,9.598 C0.167,9.385 0.011,9.077 0.005,8.729 L-0.000,8.729 L-0.000,2.375 L-0.000,1.210 L-0.000,1.190 L0.003,1.190 C0.003,0.534 0.535,0.003 1.190,0.003 L1.190,-0.000 L8.707,-0.000 L8.707,0.003 C8.708,0.003 8.709,0.003 8.710,0.003 C9.039,0.003 9.336,0.137 9.551,0.353 L18.643,9.049 C18.808,9.211 18.927,9.420 18.975,9.655 ZM3.169,1.586 C2.295,1.586 1.586,2.295 1.586,3.169 C1.586,4.044 2.295,4.752 3.169,4.752 C4.043,4.752 4.752,4.044 4.752,3.169 C4.752,2.295 4.043,1.586 3.169,1.586 Z" class="cls-1"/>
</svg>
